<?xml version="1.0" encoding="utf-8"?>
<!-- Generator: Adobe Illustrator 25.2.3, SVG Export Plug-In . SVG Version: 6.00 Build 0)  -->
<svg version="1.1" id="Calque_1" xmlns="http://www.w3.org/2000/svg" xmlns:xlink="http://www.w3.org/1999/xlink" x="0px" y="0px"
	 viewBox="0 0 173 40" enable-background="new 0 0 173 40" xml:space="preserve">
<g>
	<g>
		<g>
			<path fill="#FFFFFF" d="M17.6,15.7L10.9,9l6.7-6.7L24.3,9L17.6,15.7z M13.4,9l4.2,4.2L21.8,9l-4.2-4.2L13.4,9z"/>
			<path fill="#FFFFFF" d="M17.6,26.6l-6.7-6.7l6.7-6.7l6.7,6.7L17.6,26.6z M13.4,19.9l4.2,4.2l4.2-4.2l-4.2-4.2L13.4,19.9z"/>
			<path fill="#FFFFFF" d="M28.5,26.6l-6.7-6.7l6.7-6.7l6.7,6.7L28.5,26.6z M24.3,19.9l4.2,4.2l4.2-4.2l-4.2-4.2L24.3,19.9z"/>
			<path fill="#FFFFFF" d="M6.7,26.6L0,19.9l6.7-6.7l6.7,6.7L6.7,26.6z M2.5,19.9l4.2,4.2l4.2-4.2l-4.2-4.2L2.5,19.9z"/>
			<path fill="#FFFFFF" d="M12.1,32.1l-6.7-6.7l6.7-6.7l6.7,6.7L12.1,32.1z M7.9,25.4l4.2,4.2l4.2-4.2l-4.2-4.2L7.9,25.4z"/>
			<path fill="#FFFFFF" d="M23.1,32.1l-6.7-6.7l6.7-6.7l6.7,6.7L23.1,32.1z M18.8,25.4l4.2,4.2l4.2-4.2l-4.2-4.2L18.8,25.4z"/>
			<path fill="#FFFFFF" d="M17.6,37.5l-6.7-6.7l6.7-6.7l6.7,6.7L17.6,37.5z M13.4,30.8l4.2,4.2l4.2-4.2l-4.2-4.2L13.4,30.8z"/>
		</g>
		<g>
			<path fill="#FFFFFF" d="M17.6,15.7L10.9,9l6.7-6.7L24.3,9L17.6,15.7z M13.4,9l4.2,4.2L21.8,9l-4.2-4.2L13.4,9z"/>
			<path fill="#FFFFFF" d="M17.6,26.6l-6.7-6.7l6.7-6.7l6.7,6.7L17.6,26.6z M13.4,19.9l4.2,4.2l4.2-4.2l-4.2-4.2L13.4,19.9z"/>
			<path fill="#FFFFFF" d="M28.5,26.6l-6.7-6.7l6.7-6.7l6.7,6.7L28.5,26.6z M24.3,19.9l4.2,4.2l4.2-4.2l-4.2-4.2L24.3,19.9z"/>
			<path fill="#FFFFFF" d="M6.7,26.6L0,19.9l6.7-6.7l6.7,6.7L6.7,26.6z M2.5,19.9l4.2,4.2l4.2-4.2l-4.2-4.2L2.5,19.9z"/>
			<path fill="#FFFFFF" d="M12.1,32.1l-6.7-6.7l6.7-6.7l6.7,6.7L12.1,32.1z M7.9,25.4l4.2,4.2l4.2-4.2l-4.2-4.2L7.9,25.4z"/>
			<path fill="#FFFFFF" d="M23.1,32.1l-6.7-6.7l6.7-6.7l6.7,6.7L23.1,32.1z M18.8,25.4l4.2,4.2l4.2-4.2l-4.2-4.2L18.8,25.4z"/>
			<path fill="#FFFFFF" d="M17.6,37.5l-6.7-6.7l6.7-6.7l6.7,6.7L17.6,37.5z M13.4,30.8l4.2,4.2l4.2-4.2l-4.2-4.2L13.4,30.8z"/>
		</g>
		<path fill="#FFFFFF" d="M64.1,22.8c-1.3,2.7-3.8,4.4-6.8,4.4c-4.2,0-7.6-3.1-7.6-7.3c0-4.1,3.5-7.3,7.6-7.3c3,0,5.8,1.7,6.9,4.5
			H62c-1-1.7-2.8-2.7-4.7-2.7c-3.1,0-5.7,2.3-5.7,5.4c0,3.1,2.4,5.5,5.5,5.5c2.2,0,3.7-0.9,4.9-2.6H64.1z"/>
		<path fill="#FFFFFF" d="M72.3,20.5c0.1,2.7,2.7,4.8,5.3,4.8c2.1,0,4.2-1.1,5-3.1h2c-1,2.8-3.8,4.9-6.8,4.9c-4.1,0-7.3-3.2-7.3-7.3
			c0-4.1,3.2-7.3,7.3-7.3c2.2,0,4.2,1,5.6,2.7c1.3,1.6,1.6,3.2,1.6,5.3H72.3z M83,18.8c-0.5-2.5-2.8-4.4-5.3-4.4
			c-2.6,0-5,1.9-5.4,4.4H83z"/>
		<path fill="#FFFFFF" d="M92.7,12.9h1.8v2h0.1c0.7-1.7,2.3-2.3,4-2.3v1.9c-1,0.1-1.7,0.3-2.5,1c-1.3,1.1-1.4,2-1.4,3.6v7.8h-1.9
			V12.9z"/>
		<path fill="#FFFFFF" d="M117.9,26.8h-1.8v-2.6h-0.1c-1,2-3.2,3-5.4,3c-2.1,0-4.4-0.9-6.2-3c-0.5-0.6-1.4-2.3-1.4-4.4
			c0-1.9,0.8-3.6,2-4.9c1.3-1.4,3.1-2.3,5.5-2.3c2.2,0,4.4,1,5.4,3h0.1v-2.7h1.8V26.8z M105.1,19.9c0,3.1,2.7,5.4,5.6,5.4
			c2.9,0,5.4-2.5,5.4-5.4c0-3.1-2.3-5.6-5.5-5.6C107.6,14.4,105.1,16.8,105.1,19.9z"/>
		<path fill="#FFFFFF" d="M127.5,14.6h-2.9v-1.7h2.9V8h1.9v4.9h3.2v1.7h-3.2v12.3h-1.9V14.6z"/>
		<path fill="#FFFFFF" d="M139.3,20.5c0.1,2.7,2.7,4.8,5.3,4.8c2.1,0,4.2-1.1,5-3.1h2c-1,2.8-3.8,4.9-6.8,4.9
			c-4.1,0-7.3-3.2-7.3-7.3c0-4.1,3.2-7.3,7.3-7.3c2.2,0,4.2,1,5.6,2.7c1.3,1.6,1.6,3.2,1.6,5.3H139.3z M150,18.8
			c-0.5-2.5-2.8-4.4-5.3-4.4c-2.6,0-5,1.9-5.4,4.4H150z"/>
		<path fill="#FFFFFF" d="M173,22.8c-1.3,2.7-3.8,4.4-6.8,4.4c-4.2,0-7.6-3.1-7.6-7.3c0-4.1,3.5-7.3,7.6-7.3c3,0,5.8,1.7,6.9,4.5
			h-2.1c-1-1.7-2.8-2.7-4.7-2.7c-3.1,0-5.7,2.3-5.7,5.4c0,3.1,2.4,5.5,5.5,5.5c2.2,0,3.7-0.9,4.9-2.6H173z"/>
		<g>
			<path fill="#FFFFFF" d="M55.5,36c0.1,0.2,0.5,0.8,1.7,0.8c0.2,0,0.4,0,0.6-0.1c0.4-0.2,0.5-0.4,0.5-0.6c0-0.3-0.2-0.5-0.4-0.5
				c-0.1,0-0.1-0.1-0.6-0.2l-0.6-0.1c-0.3-0.1-0.5-0.1-0.7-0.2c-0.2-0.1-0.9-0.4-0.9-1.3c0-1,0.9-1.7,2.1-1.7c1.1,0,1.8,0.6,2.1,1.1
				l-0.8,0.6C58.2,33.5,57.8,33,57,33c-0.5,0-1,0.2-1,0.7c0,0.5,0.5,0.5,1,0.6l0.6,0.1c0.7,0.2,1.7,0.4,1.7,1.6
				c0,1.2-1.1,1.7-2.3,1.7c-0.3,0-0.6,0-1-0.1c-0.4-0.1-1-0.4-1.4-1L55.5,36z"/>
			<path fill="#FFFFFF" d="M75.2,32.2v3.4c0,0.6,0,1.1-0.6,1.6c-0.5,0.5-1.2,0.5-1.6,0.5c-0.3,0-0.6,0-0.9-0.1
				c-0.6-0.2-1-0.7-1.1-1.1c-0.1-0.2-0.1-0.4-0.1-1.1v-3.2h1v3.3c0,0.2,0,0.4,0.1,0.7c0.2,0.5,0.8,0.6,1.1,0.6c0.2,0,0.6,0,0.9-0.3
				c0.3-0.3,0.3-0.6,0.3-1v-3.2H75.2z"/>
			<path fill="#FFFFFF" d="M87.3,32.2H89c0.7,0,1.2,0,1.7,0.4c0.3,0.3,0.6,0.7,0.6,1.3c0,1-0.7,1.4-1.1,1.5l1.2,2.2h-1.1l-1.1-2
				h-0.9v2h-1V32.2z M88.3,33.1v1.7h0.3c0.3,0,0.5,0,0.7,0c0.2,0,0.9,0,0.9-0.8c0-0.1,0-0.5-0.4-0.7c-0.2-0.1-0.5-0.1-1.1-0.1H88.3z
				"/>
			<path fill="#FFFFFF" d="M104,34.4h2.2v0.9H104v2.3h-1v-5.3h3.5v0.9H104V34.4z"/>
			<path fill="#FFFFFF" d="M120.1,36.5h-2l-0.3,1h-1.1l1.8-5.3h1.1l1.8,5.3h-1.1L120.1,36.5z M119.9,35.7l-0.7-2.5l-0.7,2.5H119.9z"
				/>
			<path fill="#FFFFFF" d="M137,36.1c-0.1,0.2-0.2,0.5-0.5,0.8c-0.4,0.4-1,0.8-1.8,0.8c-1.4,0-2.5-1-2.5-2.8c0-1.8,1.2-2.8,2.5-2.8
				c1.7,0,2.1,1.3,2.2,1.6l-1,0.3c0-0.1-0.1-0.3-0.2-0.5c-0.1-0.2-0.4-0.5-1-0.5c-0.9,0-1.5,0.7-1.5,1.9c0,1.2,0.6,1.9,1.5,1.9
				c0.5,0,0.8-0.2,1-0.5c0.2-0.2,0.2-0.4,0.3-0.6L137,36.1z"/>
			<path fill="#FFFFFF" d="M149.2,33.1v1.3h2.6v0.9h-2.6v1.4h3v0.9h-4v-5.3h3.8v0.9H149.2z"/>
			<path fill="#FFFFFF" d="M164.2,36c0.1,0.2,0.5,0.8,1.7,0.8c0.2,0,0.4,0,0.6-0.1c0.4-0.2,0.5-0.4,0.5-0.6c0-0.3-0.2-0.5-0.4-0.5
				c-0.1,0-0.1-0.1-0.6-0.2l-0.6-0.1c-0.3-0.1-0.5-0.1-0.7-0.2c-0.2-0.1-0.9-0.4-0.9-1.3c0-1,0.9-1.7,2.1-1.7c1.1,0,1.8,0.6,2.1,1.1
				l-0.8,0.6c-0.2-0.3-0.5-0.8-1.4-0.8c-0.5,0-1,0.2-1,0.7c0,0.5,0.5,0.5,1,0.6l0.6,0.1c0.7,0.2,1.7,0.4,1.7,1.6
				c0,1.2-1.1,1.7-2.3,1.7c-0.3,0-0.6,0-1-0.1c-0.4-0.1-1-0.4-1.4-1L164.2,36z"/>
		</g>
	</g>
	<g>
		<g>
			<path fill="#807E7C" d="M17.6,15.7L10.9,9l6.7-6.7L24.3,9L17.6,15.7z M13.4,9l4.2,4.2L21.8,9l-4.2-4.2L13.4,9z"/>
			<path fill="#807E7C" d="M17.6,26.6l-6.7-6.7l6.7-6.7l6.7,6.7L17.6,26.6z M13.4,19.9l4.2,4.2l4.2-4.2l-4.2-4.2L13.4,19.9z"/>
			<path fill="#807E7C" d="M28.5,26.6l-6.7-6.7l6.7-6.7l6.7,6.7L28.5,26.6z M24.3,19.9l4.2,4.2l4.2-4.2l-4.2-4.2L24.3,19.9z"/>
			<path fill="#807E7C" d="M6.7,26.6L0,19.9l6.7-6.7l6.7,6.7L6.7,26.6z M2.5,19.9l4.2,4.2l4.2-4.2l-4.2-4.2L2.5,19.9z"/>
			<path fill="#807E7C" d="M12.1,32.1l-6.7-6.7l6.7-6.7l6.7,6.7L12.1,32.1z M7.9,25.4l4.2,4.2l4.2-4.2l-4.2-4.2L7.9,25.4z"/>
			<path fill="#807E7C" d="M23.1,32.1l-6.7-6.7l6.7-6.7l6.7,6.7L23.1,32.1z M18.8,25.4l4.2,4.2l4.2-4.2l-4.2-4.2L18.8,25.4z"/>
			<path fill="#807E7C" d="M17.6,37.5l-6.7-6.7l6.7-6.7l6.7,6.7L17.6,37.5z M13.4,30.8l4.2,4.2l4.2-4.2l-4.2-4.2L13.4,30.8z"/>
		</g>
		<g>
			<path fill="#807E7C" d="M17.6,15.7L10.9,9l6.7-6.7L24.3,9L17.6,15.7z M13.4,9l4.2,4.2L21.8,9l-4.2-4.2L13.4,9z"/>
			<path fill="#807E7C" d="M17.6,26.6l-6.7-6.7l6.7-6.7l6.7,6.7L17.6,26.6z M13.4,19.9l4.2,4.2l4.2-4.2l-4.2-4.2L13.4,19.9z"/>
			<path fill="#807E7C" d="M28.5,26.6l-6.7-6.7l6.7-6.7l6.7,6.7L28.5,26.6z M24.3,19.9l4.2,4.2l4.2-4.2l-4.2-4.2L24.3,19.9z"/>
			<path fill="#807E7C" d="M6.7,26.6L0,19.9l6.7-6.7l6.7,6.7L6.7,26.6z M2.5,19.9l4.2,4.2l4.2-4.2l-4.2-4.2L2.5,19.9z"/>
			<path fill="#807E7C" d="M12.1,32.1l-6.7-6.7l6.7-6.7l6.7,6.7L12.1,32.1z M7.9,25.4l4.2,4.2l4.2-4.2l-4.2-4.2L7.9,25.4z"/>
			<path fill="#807E7C" d="M23.1,32.1l-6.7-6.7l6.7-6.7l6.7,6.7L23.1,32.1z M18.8,25.4l4.2,4.2l4.2-4.2l-4.2-4.2L18.8,25.4z"/>
			<path fill="#807E7C" d="M17.6,37.5l-6.7-6.7l6.7-6.7l6.7,6.7L17.6,37.5z M13.4,30.8l4.2,4.2l4.2-4.2l-4.2-4.2L13.4,30.8z"/>
		</g>
		<path fill="#807E7C" d="M64.1,22.8c-1.3,2.7-3.8,4.4-6.8,4.4c-4.2,0-7.6-3.1-7.6-7.3c0-4.1,3.5-7.3,7.6-7.3c3,0,5.8,1.7,6.9,4.5
			H62c-1-1.7-2.8-2.7-4.7-2.7c-3.1,0-5.7,2.3-5.7,5.4c0,3.1,2.4,5.5,5.5,5.5c2.2,0,3.7-0.9,4.9-2.6H64.1z"/>
		<path fill="#807E7C" d="M72.3,20.5c0.1,2.7,2.7,4.8,5.3,4.8c2.1,0,4.2-1.1,5-3.1h2c-1,2.8-3.8,4.9-6.8,4.9c-4.1,0-7.3-3.2-7.3-7.3
			c0-4.1,3.2-7.3,7.3-7.3c2.2,0,4.2,1,5.6,2.7c1.3,1.6,1.6,3.2,1.6,5.3H72.3z M83,18.8c-0.5-2.5-2.8-4.4-5.3-4.4
			c-2.6,0-5,1.9-5.4,4.4H83z"/>
		<path fill="#807E7C" d="M92.7,12.9h1.8v2h0.1c0.7-1.7,2.3-2.3,4-2.3v1.9c-1,0.1-1.7,0.3-2.5,1c-1.3,1.1-1.4,2-1.4,3.6v7.8h-1.9
			V12.9z"/>
		<path fill="#807E7C" d="M117.9,26.8h-1.8v-2.6h-0.1c-1,2-3.2,3-5.4,3c-2.1,0-4.4-0.9-6.2-3c-0.5-0.6-1.4-2.3-1.4-4.4
			c0-1.9,0.8-3.6,2-4.9c1.3-1.4,3.1-2.3,5.5-2.3c2.2,0,4.4,1,5.4,3h0.1v-2.7h1.8V26.8z M105.1,19.9c0,3.1,2.7,5.4,5.6,5.4
			c2.9,0,5.4-2.5,5.4-5.4c0-3.1-2.3-5.6-5.5-5.6C107.6,14.4,105.1,16.8,105.1,19.9z"/>
		<path fill="#807E7C" d="M127.5,14.6h-2.9v-1.7h2.9V8h1.9v4.9h3.2v1.7h-3.2v12.3h-1.9V14.6z"/>
		<path fill="#807E7C" d="M139.3,20.5c0.1,2.7,2.7,4.8,5.3,4.8c2.1,0,4.2-1.1,5-3.1h2c-1,2.8-3.8,4.9-6.8,4.9
			c-4.1,0-7.3-3.2-7.3-7.3c0-4.1,3.2-7.3,7.3-7.3c2.2,0,4.2,1,5.6,2.7c1.3,1.6,1.6,3.2,1.6,5.3H139.3z M150,18.8
			c-0.5-2.5-2.8-4.4-5.3-4.4c-2.6,0-5,1.9-5.4,4.4H150z"/>
		<path fill="#807E7C" d="M173,22.8c-1.3,2.7-3.8,4.4-6.8,4.4c-4.2,0-7.6-3.1-7.6-7.3c0-4.1,3.5-7.3,7.6-7.3c3,0,5.8,1.7,6.9,4.5
			h-2.1c-1-1.7-2.8-2.7-4.7-2.7c-3.1,0-5.7,2.3-5.7,5.4c0,3.1,2.4,5.5,5.5,5.5c2.2,0,3.7-0.9,4.9-2.6H173z"/>
		<g>
			<path fill="#807E7C" d="M55.5,36c0.1,0.2,0.5,0.8,1.7,0.8c0.2,0,0.4,0,0.6-0.1c0.4-0.2,0.5-0.4,0.5-0.6c0-0.3-0.2-0.5-0.4-0.5
				c-0.1,0-0.1-0.1-0.6-0.2l-0.6-0.1c-0.3-0.1-0.5-0.1-0.7-0.2c-0.2-0.1-0.9-0.4-0.9-1.3c0-1,0.9-1.7,2.1-1.7c1.1,0,1.8,0.6,2.1,1.1
				l-0.8,0.6C58.2,33.5,57.8,33,57,33c-0.5,0-1,0.2-1,0.7c0,0.5,0.5,0.5,1,0.6l0.6,0.1c0.7,0.2,1.7,0.4,1.7,1.6
				c0,1.2-1.1,1.7-2.3,1.7c-0.3,0-0.6,0-1-0.1c-0.4-0.1-1-0.4-1.4-1L55.5,36z"/>
			<path fill="#807E7C" d="M75.2,32.2v3.4c0,0.6,0,1.1-0.6,1.6c-0.5,0.5-1.2,0.5-1.6,0.5c-0.3,0-0.6,0-0.9-0.1
				c-0.6-0.2-1-0.7-1.1-1.1c-0.1-0.2-0.1-0.4-0.1-1.1v-3.2h1v3.3c0,0.2,0,0.4,0.1,0.7c0.2,0.5,0.8,0.6,1.1,0.6c0.2,0,0.6,0,0.9-0.3
				c0.3-0.3,0.3-0.6,0.3-1v-3.2H75.2z"/>
			<path fill="#807E7C" d="M87.3,32.2H89c0.7,0,1.2,0,1.7,0.4c0.3,0.3,0.6,0.7,0.6,1.3c0,1-0.7,1.4-1.1,1.5l1.2,2.2h-1.1l-1.1-2
				h-0.9v2h-1V32.2z M88.3,33.1v1.7h0.3c0.3,0,0.5,0,0.7,0c0.2,0,0.9,0,0.9-0.8c0-0.1,0-0.5-0.4-0.7c-0.2-0.1-0.5-0.1-1.1-0.1H88.3z
				"/>
			<path fill="#807E7C" d="M104,34.4h2.2v0.9H104v2.3h-1v-5.3h3.5v0.9H104V34.4z"/>
			<path fill="#807E7C" d="M120.1,36.5h-2l-0.3,1h-1.1l1.8-5.3h1.1l1.8,5.3h-1.1L120.1,36.5z M119.9,35.7l-0.7-2.5l-0.7,2.5H119.9z"
				/>
			<path fill="#807E7C" d="M137,36.1c-0.1,0.2-0.2,0.5-0.5,0.8c-0.4,0.4-1,0.8-1.8,0.8c-1.4,0-2.5-1-2.5-2.8c0-1.8,1.2-2.8,2.5-2.8
				c1.7,0,2.1,1.3,2.2,1.6l-1,0.3c0-0.1-0.1-0.3-0.2-0.5c-0.1-0.2-0.4-0.5-1-0.5c-0.9,0-1.5,0.7-1.5,1.9c0,1.2,0.6,1.9,1.5,1.9
				c0.5,0,0.8-0.2,1-0.5c0.2-0.2,0.2-0.4,0.3-0.6L137,36.1z"/>
			<path fill="#807E7C" d="M149.2,33.1v1.3h2.6v0.9h-2.6v1.4h3v0.9h-4v-5.3h3.8v0.9H149.2z"/>
			<path fill="#807E7C" d="M164.2,36c0.1,0.2,0.5,0.8,1.7,0.8c0.2,0,0.4,0,0.6-0.1c0.4-0.2,0.5-0.4,0.5-0.6c0-0.3-0.2-0.5-0.4-0.5
				c-0.1,0-0.1-0.1-0.6-0.2l-0.6-0.1c-0.3-0.1-0.5-0.1-0.7-0.2c-0.2-0.1-0.9-0.4-0.9-1.3c0-1,0.9-1.7,2.1-1.7c1.1,0,1.8,0.6,2.1,1.1
				l-0.8,0.6c-0.2-0.3-0.5-0.8-1.4-0.8c-0.5,0-1,0.2-1,0.7c0,0.5,0.5,0.5,1,0.6l0.6,0.1c0.7,0.2,1.7,0.4,1.7,1.6
				c0,1.2-1.1,1.7-2.3,1.7c-0.3,0-0.6,0-1-0.1c-0.4-0.1-1-0.4-1.4-1L164.2,36z"/>
		</g>
	</g>
</g>
</svg>
