<?xml version="1.0" encoding="UTF-8"?><svg id="uuid-8cd0f4c2-f47a-4b0e-9202-1bc712c704c0" xmlns="http://www.w3.org/2000/svg" width="240" height="25.06" viewBox="0 0 240 25.06"><g id="uuid-c9427ea1-ed75-4282-8740-5c6606f3c96f"><path id="uuid-161d5c1e-3ac5-4af7-891d-871b488394f4" d="M32.63.97H.36c-.2,0-.36.16-.36.36v22.4c0,.2.16.36.36.36h3.53c.2,0,.36-.16.36-.36v-8.36h23.84c.2,0,.36-.16.36-.36v-2.59c0-.2-.16-.36-.36-.36H4.25v-7.77h28.38c.2,0,.36-.16.36-.36V1.34c0-.2-.16-.36-.36-.36Z" style="fill:#333544; stroke-width:0px;"/><path id="uuid-22526f2a-cb28-419e-ac7b-c83f3be311b3" d="M75.37.97h-3.53c-.2,0-.36.16-.36.36v12.17c0,5.74-4.37,8.53-13.38,8.53-4.21,0-8.86-.34-11.39-2.88-1.35-1.35-2-3.2-1.99-5.65l.03-12.17c0-.1-.04-.19-.11-.26-.07-.07-.16-.11-.26-.11h-3.53c-.2,0-.36.16-.36.36v11.52h-.01c0,8.62,5.1,12.14,17.6,12.14s17.64-3.75,17.64-12.14V1.34c0-.2-.16-.36-.36-.36Z" style="fill:#333544; stroke-width:0px;"/><path id="uuid-a4607cda-8d9a-4d12-b7e1-5e94b655ae7c" d="M120.52,20.78h-29.45l29.62-16.58c.11-.06.18-.18.18-.32V1.34c0-.2-.16-.36-.36-.36h-36.7c-.2,0-.36.16-.36.36v2.6c0,.2.16.36.36.36h29.14l-29.32,16.32c-.11.06-.19.18-.19.32v2.8c0,.2.16.36.36.36h36.7c.2,0,.36-.16.36-.36v-2.6c0-.2-.16-.36-.36-.36h0Z" style="fill:#333544; stroke-width:0px;"/><path id="uuid-67db6e09-7d01-47d7-ae7d-1585a73531e8" d="M134.11.97h-3.53c-.2,0-.36.16-.36.36v22.4c0,.2.16.36.36.36h3.53c.2,0,.36-.16.36-.36V1.34c0-.2-.16-.36-.36-.36Z" style="fill:#333544; stroke-width:0px;"/><path id="uuid-f5c54b9a-c75c-4cc2-9a6e-424805737d7d" d="M164.18,0c-12.89,0-21.9,5.15-21.9,12.53s9.01,12.53,21.9,12.53,21.9-5.15,21.9-12.53S177.08,0,164.18,0ZM181.17,12.53h-.01c0,5.46-7.6,9.58-17.68,9.58s-16.27-3.85-16.27-9.58,7.59-9.58,17.65-9.58,16.31,3.94,16.31,9.58Z" style="fill:#333544; stroke-width:0px;"/><path id="uuid-3d0f97b3-4232-4a39-931b-4791c92322eb" d="M231.65.97h-3.53c-.2,0-.36.16-.36.36v18.48L197.93,1.03c-.06-.04-.12-.06-.19-.06h-3.92c-.2,0-.36.16-.36.36v22.4c0,.2.16.36.36.36h3.53c.2,0,.36-.16.36-.36V5.67l30.09,18.38c.06.04.12.05.19.05h3.66c.2,0,.36-.16.36-.36V1.34c0-.2-.16-.36-.36-.36Z" style="fill:#333544; stroke-width:0px;"/><path id="uuid-11432d6d-6d51-48e5-92a5-00d5f0a627a4" d="M236.57,1.08v1.82h-.34v-1.82h-.66v-.29h1.66v.29h-.66ZM239.63,2.9v-1.76l-.69,1.75h-.21l-.69-1.75v1.75h-.34V.79h.53l.63,1.59.61-1.59h.53v2.11h-.37Z" style="fill:#333544; stroke-width:0px;"/></g></svg>