<?xml version="1.0" encoding="utf-8"?>
<!-- Generator: Adobe Illustrator 16.0.3, SVG Export Plug-In . SVG Version: 6.00 Build 0)  -->
<!DOCTYPE svg PUBLIC "-//W3C//DTD SVG 1.1//EN" "http://www.w3.org/Graphics/SVG/1.1/DTD/svg11.dtd">
<svg version="1.1" id="Layer_1" xmlns="http://www.w3.org/2000/svg" xmlns:xlink="http://www.w3.org/1999/xlink" x="0px" y="0px"
	 width="231.482px" height="89px" viewBox="0 0 231.482 89" enable-background="new 0 0 231.482 89" xml:space="preserve">
<g>
	<path fill="#3F3E29" stroke="#3F3E29" stroke-width="0.25" stroke-miterlimit="10" d="M24.042,75.165
		c0.141-0.191,0.29-0.35,0.444-0.476s0.31-0.226,0.465-0.301s0.305-0.129,0.451-0.161c0.146-0.031,0.285-0.047,0.417-0.047
		c0.328,0,0.62,0.064,0.875,0.194s0.469,0.314,0.643,0.554s0.305,0.527,0.396,0.865c0.091,0.337,0.137,0.711,0.137,1.121
		c0,0.433-0.055,0.823-0.164,1.172s-0.259,0.646-0.448,0.893s-0.413,0.436-0.67,0.57s-0.534,0.201-0.831,0.201
		c-0.26,0-0.542-0.051-0.848-0.153s-0.595-0.281-0.868-0.536v0.553h-0.547V72.13h0.547V75.165z M24.042,78.351
		c0.246,0.26,0.502,0.467,0.769,0.621c0.267,0.155,0.562,0.232,0.885,0.232c0.492,0,0.886-0.193,1.183-0.58
		c0.296-0.388,0.444-0.957,0.444-1.709c0-0.721-0.139-1.266-0.417-1.635s-0.666-0.553-1.162-0.553c-0.328,0-0.63,0.098-0.906,0.293
		c-0.276,0.196-0.541,0.473-0.796,0.828V78.351z"/>
	<path fill="#3F3E29" stroke="#3F3E29" stroke-width="0.25" stroke-miterlimit="10" d="M36.291,79.751
		c-0.369,0-0.704-0.063-1.005-0.188s-0.56-0.308-0.776-0.547s-0.384-0.532-0.502-0.879c-0.119-0.346-0.178-0.74-0.178-1.182
		c0-0.429,0.057-0.814,0.171-1.159s0.276-0.636,0.485-0.875s0.458-0.423,0.745-0.55c0.287-0.128,0.606-0.191,0.957-0.191
		c0.36,0,0.686,0.063,0.978,0.191c0.292,0.127,0.54,0.311,0.745,0.55s0.362,0.53,0.472,0.875s0.164,0.732,0.164,1.165v0.123h-4.17
		c0.027,0.36,0.093,0.673,0.198,0.938c0.105,0.264,0.242,0.484,0.41,0.659s0.363,0.307,0.584,0.394
		c0.221,0.086,0.461,0.129,0.721,0.129c0.182,0,0.365-0.021,0.547-0.064s0.348-0.108,0.496-0.195
		c0.148-0.086,0.272-0.193,0.373-0.32c0.1-0.128,0.16-0.273,0.178-0.438h0.54c-0.05,0.25-0.139,0.473-0.267,0.666
		s-0.285,0.357-0.472,0.492s-0.399,0.236-0.636,0.305S36.56,79.751,36.291,79.751z M37.993,76.538
		c-0.091-0.605-0.297-1.059-0.619-1.359s-0.717-0.451-1.186-0.451c-0.232,0-0.449,0.036-0.649,0.109
		c-0.201,0.072-0.379,0.184-0.537,0.334s-0.29,0.34-0.396,0.568c-0.107,0.228-0.184,0.494-0.229,0.799H37.993z"/>
	<path fill="#3F3E29" stroke="#3F3E29" stroke-width="0.25" stroke-miterlimit="10" d="M48.861,74.317l-1.928,5.393
		c-0.119,0.319-0.238,0.6-0.359,0.842c-0.121,0.241-0.252,0.443-0.393,0.607s-0.297,0.287-0.468,0.369s-0.361,0.123-0.571,0.123
		c-0.073,0-0.144-0.002-0.212-0.006c-0.068-0.005-0.137-0.012-0.205-0.021v-0.588c0.037,0.005,0.075,0.008,0.116,0.008
		s0.084,0,0.13,0c0.314,0,0.583-0.109,0.807-0.325s0.419-0.568,0.588-1.056l-2.017-5.346h0.602l1.729,4.621l1.586-4.621H48.861z"/>
	<path fill="#3F3E29" stroke="#3F3E29" stroke-width="0.25" stroke-miterlimit="10" d="M57.022,74.181
		c0.36,0,0.686,0.063,0.978,0.188s0.54,0.308,0.745,0.547s0.362,0.531,0.472,0.875s0.164,0.732,0.164,1.166
		c0,0.441-0.056,0.836-0.167,1.182c-0.112,0.347-0.27,0.64-0.475,0.879s-0.454,0.422-0.745,0.547s-0.615,0.188-0.971,0.188
		s-0.678-0.061-0.967-0.184s-0.537-0.305-0.742-0.544s-0.365-0.532-0.479-0.878c-0.114-0.347-0.171-0.743-0.171-1.189
		c0-0.438,0.056-0.828,0.167-1.173s0.27-0.635,0.475-0.872c0.205-0.236,0.454-0.418,0.745-0.543S56.667,74.181,57.022,74.181z
		 M57.022,79.204c0.269,0,0.514-0.047,0.735-0.14s0.411-0.235,0.571-0.424s0.284-0.424,0.373-0.704s0.133-0.607,0.133-0.98
		c0-0.369-0.044-0.694-0.133-0.975s-0.213-0.513-0.373-0.697s-0.35-0.324-0.571-0.417s-0.466-0.14-0.735-0.14
		c-0.273,0-0.521,0.047-0.742,0.14s-0.411,0.232-0.571,0.417s-0.283,0.417-0.369,0.697s-0.13,0.605-0.13,0.975
		c0,0.373,0.043,0.7,0.13,0.98s0.209,0.516,0.369,0.704s0.35,0.331,0.571,0.424S56.749,79.204,57.022,79.204z"/>
	<path fill="#3F3E29" stroke="#3F3E29" stroke-width="0.25" stroke-miterlimit="10" d="M66.229,75.103
		c0.178-0.209,0.352-0.375,0.523-0.498s0.337-0.217,0.499-0.281c0.162-0.063,0.315-0.104,0.461-0.119s0.283-0.023,0.41-0.023
		c1.089,0,1.634,0.643,1.634,1.928v3.506h-0.547v-3.459c0-0.246-0.021-0.459-0.065-0.639s-0.114-0.328-0.212-0.444
		s-0.226-0.202-0.383-0.26s-0.35-0.085-0.578-0.085c-0.301,0-0.596,0.088-0.885,0.266s-0.575,0.429-0.858,0.752v3.869h-0.547v-5.297
		h0.547V75.103z"/>
	<path fill="#3F3E29" stroke="#3F3E29" stroke-width="0.25" stroke-miterlimit="10" d="M79.906,78.884
		c-0.164,0.191-0.325,0.344-0.482,0.457c-0.157,0.114-0.31,0.202-0.458,0.264s-0.292,0.102-0.431,0.119
		c-0.139,0.019-0.272,0.027-0.4,0.027c-0.333,0-0.626-0.065-0.882-0.197c-0.255-0.133-0.469-0.318-0.643-0.558
		s-0.304-0.527-0.393-0.864c-0.089-0.338-0.133-0.714-0.133-1.129c0-0.438,0.054-0.83,0.161-1.179s0.255-0.646,0.444-0.889
		s0.413-0.431,0.67-0.561s0.534-0.194,0.831-0.194c0.127,0,0.257,0.006,0.39,0.02s0.269,0.043,0.41,0.086s0.288,0.108,0.441,0.195
		c0.153,0.086,0.311,0.202,0.475,0.348V72.13h0.547v7.484h-0.547V78.884z M79.906,75.493c-0.246-0.256-0.502-0.447-0.769-0.574
		c-0.267-0.128-0.562-0.191-0.885-0.191c-0.246,0-0.468,0.047-0.667,0.14s-0.368,0.235-0.509,0.424s-0.25,0.427-0.328,0.711
		s-0.116,0.618-0.116,1.001c0,0.721,0.139,1.268,0.417,1.641c0.278,0.374,0.666,0.561,1.162,0.561c0.328,0,0.629-0.09,0.902-0.27
		s0.538-0.447,0.793-0.803V75.493z"/>
	<path fill="#3F3E29" stroke="#3F3E29" stroke-width="0.25" stroke-miterlimit="10" d="M102.382,79.663
		c-0.078,0.009-0.155,0.016-0.232,0.02c-0.078,0.005-0.155,0.008-0.232,0.008c-0.237,0-0.427-0.033-0.571-0.1
		s-0.253-0.165-0.328-0.297c-0.075-0.133-0.124-0.298-0.147-0.496s-0.034-0.43-0.034-0.693v-3.24h-0.677v-0.547h0.677v-1.389h0.547
		v1.389h0.868v0.547h-0.868v3.287c0,0.219,0.016,0.394,0.048,0.523s0.08,0.23,0.144,0.301s0.143,0.116,0.236,0.137
		s0.199,0.031,0.318,0.031c0.05,0,0.093,0,0.13,0s0.078-0.003,0.123-0.008V79.663z"/>
	<path fill="#3F3E29" stroke="#3F3E29" stroke-width="0.25" stroke-miterlimit="10" d="M109.025,75.103
		c0.173-0.195,0.343-0.355,0.509-0.479s0.328-0.216,0.485-0.279c0.157-0.064,0.308-0.107,0.451-0.131
		c0.144-0.022,0.279-0.033,0.407-0.033c1.089,0,1.634,0.643,1.634,1.928v3.506h-0.547v-3.459c0-0.246-0.021-0.459-0.065-0.639
		s-0.114-0.328-0.212-0.444s-0.226-0.202-0.383-0.26s-0.35-0.085-0.578-0.085c-0.301,0-0.589,0.088-0.865,0.266
		s-0.555,0.429-0.837,0.752v3.869h-0.547V72.13h0.547V75.103z"/>
	<path fill="#3F3E29" stroke="#3F3E29" stroke-width="0.25" stroke-miterlimit="10" d="M121.301,79.751
		c-0.369,0-0.704-0.063-1.005-0.188s-0.56-0.308-0.776-0.547s-0.384-0.532-0.502-0.879c-0.119-0.346-0.178-0.74-0.178-1.182
		c0-0.429,0.057-0.814,0.171-1.159s0.276-0.636,0.485-0.875s0.458-0.423,0.745-0.55c0.287-0.128,0.606-0.191,0.957-0.191
		c0.36,0,0.686,0.063,0.978,0.191c0.292,0.127,0.54,0.311,0.745,0.55s0.362,0.53,0.472,0.875s0.164,0.732,0.164,1.165v0.123h-4.17
		c0.027,0.36,0.093,0.673,0.198,0.938c0.105,0.264,0.242,0.484,0.41,0.659s0.363,0.307,0.584,0.394
		c0.221,0.086,0.461,0.129,0.721,0.129c0.182,0,0.365-0.021,0.547-0.064s0.348-0.108,0.496-0.195
		c0.148-0.086,0.272-0.193,0.373-0.32c0.1-0.128,0.16-0.273,0.178-0.438h0.54c-0.05,0.25-0.139,0.473-0.267,0.666
		s-0.285,0.357-0.472,0.492s-0.399,0.236-0.636,0.305S121.57,79.751,121.301,79.751z M123.003,76.538
		c-0.091-0.605-0.297-1.059-0.619-1.359s-0.717-0.451-1.186-0.451c-0.232,0-0.449,0.036-0.649,0.109
		c-0.201,0.072-0.379,0.184-0.537,0.334s-0.29,0.34-0.396,0.568c-0.107,0.228-0.184,0.494-0.229,0.799H123.003z"/>
	<path fill="#3F3E29" stroke="#3F3E29" stroke-width="0.25" stroke-miterlimit="10" d="M145.172,79.751
		c-1.299,0-2.008-0.521-2.127-1.564h0.555c0.041,0.318,0.188,0.568,0.44,0.748s0.628,0.27,1.124,0.27
		c0.242,0,0.454-0.025,0.637-0.078c0.182-0.053,0.334-0.123,0.454-0.212s0.211-0.194,0.271-0.317
		c0.059-0.123,0.088-0.256,0.088-0.396c0-0.142-0.023-0.263-0.071-0.363c-0.048-0.1-0.134-0.191-0.26-0.273s-0.296-0.16-0.513-0.235
		s-0.493-0.156-0.83-0.243c-0.287-0.072-0.543-0.147-0.766-0.225c-0.224-0.078-0.412-0.174-0.564-0.287
		c-0.152-0.114-0.268-0.252-0.346-0.414c-0.077-0.162-0.115-0.363-0.115-0.605c0-0.209,0.044-0.399,0.133-0.57
		s0.213-0.315,0.373-0.434c0.159-0.119,0.353-0.21,0.58-0.273c0.229-0.064,0.481-0.096,0.76-0.096c0.629,0,1.105,0.105,1.432,0.317
		s0.507,0.546,0.543,1.001h-0.553c-0.037-0.264-0.164-0.459-0.38-0.584s-0.539-0.188-0.968-0.188c-0.2,0-0.385,0.018-0.553,0.055
		c-0.169,0.036-0.314,0.09-0.435,0.16s-0.216,0.16-0.284,0.267s-0.102,0.229-0.102,0.366c0,0.077,0.014,0.156,0.041,0.238
		s0.096,0.167,0.208,0.254c0.112,0.086,0.279,0.174,0.503,0.263c0.223,0.089,0.528,0.181,0.916,0.276
		c0.305,0.078,0.57,0.158,0.796,0.243s0.413,0.185,0.561,0.301s0.259,0.252,0.331,0.407c0.073,0.154,0.109,0.337,0.109,0.547
		c0,0.232-0.047,0.449-0.14,0.652s-0.226,0.377-0.396,0.523c-0.171,0.146-0.38,0.26-0.626,0.345S145.477,79.751,145.172,79.751z"/>
	<path fill="#3F3E29" stroke="#3F3E29" stroke-width="0.25" stroke-miterlimit="10" d="M157.065,78.903
		c-0.133,0.16-0.281,0.293-0.447,0.4c-0.167,0.107-0.336,0.193-0.506,0.26c-0.172,0.066-0.34,0.113-0.506,0.144
		c-0.167,0.03-0.316,0.044-0.448,0.044c-1.085,0-1.627-0.645-1.627-1.934v-3.5h0.547v3.451c0,0.497,0.093,0.861,0.276,1.091
		c0.186,0.229,0.506,0.345,0.961,0.345c0.328,0,0.637-0.091,0.926-0.273c0.29-0.182,0.564-0.441,0.824-0.779v-3.834h0.547v5.297
		h-0.547V78.903z"/>
	<path fill="#3F3E29" stroke="#3F3E29" stroke-width="0.25" stroke-miterlimit="10" d="M166.682,74.741
		c-0.051-0.01-0.105-0.014-0.164-0.014c-0.055,0-0.121,0-0.199,0c-0.154,0-0.305,0.031-0.451,0.096
		c-0.146,0.063-0.284,0.146-0.416,0.249c-0.133,0.103-0.256,0.219-0.369,0.349c-0.114,0.13-0.213,0.264-0.295,0.4v3.793h-0.547
		v-5.297h0.547v0.73c0.155-0.182,0.309-0.33,0.462-0.443c0.153-0.114,0.301-0.203,0.444-0.268c0.144-0.063,0.281-0.105,0.414-0.126
		c0.132-0.021,0.252-0.03,0.361-0.03c0.037,0,0.071,0,0.104,0.003c0.031,0.003,0.068,0.006,0.109,0.011V74.741z"/>
	<path fill="#3F3E29" stroke="#3F3E29" stroke-width="0.25" stroke-miterlimit="10" d="M173.393,74.864v4.75h-0.547v-4.75h-0.82
		v-0.547h0.82v-0.615c0-1.094,0.436-1.641,1.306-1.641c0.091,0,0.181,0.002,0.271,0.006c0.088,0.005,0.164,0.012,0.229,0.021v0.525
		c-0.037-0.004-0.068-0.006-0.096-0.006s-0.053,0-0.075,0c-0.2,0-0.37,0.018-0.509,0.055c-0.14,0.036-0.252,0.098-0.339,0.184
		c-0.087,0.087-0.147,0.201-0.185,0.342c-0.037,0.142-0.055,0.317-0.055,0.527v0.602h1.005v0.547H173.393z"/>
	<path fill="#3F3E29" stroke="#3F3E29" stroke-width="0.25" stroke-miterlimit="10" d="M183.899,78.931
		c-0.188,0.164-0.369,0.301-0.547,0.407s-0.352,0.191-0.523,0.253c-0.17,0.062-0.34,0.104-0.509,0.127
		c-0.169,0.022-0.339,0.033-0.513,0.033c-0.232,0-0.449-0.035-0.649-0.105s-0.374-0.171-0.52-0.301s-0.261-0.287-0.345-0.472
		c-0.085-0.185-0.127-0.389-0.127-0.612c0-0.605,0.259-1.077,0.775-1.414c0.518-0.338,1.293-0.506,2.328-0.506h0.629
		c0-0.232-0.014-0.447-0.041-0.643c-0.027-0.196-0.092-0.366-0.191-0.51s-0.248-0.256-0.444-0.338s-0.462-0.123-0.8-0.123
		c-0.496,0-0.869,0.077-1.117,0.232c-0.249,0.154-0.396,0.389-0.441,0.703h-0.54c0.055-0.501,0.251-0.873,0.588-1.117
		s0.839-0.365,1.504-0.365c0.369,0,0.683,0.045,0.94,0.137c0.257,0.091,0.467,0.222,0.629,0.393
		c0.161,0.171,0.279,0.379,0.352,0.622s0.109,0.519,0.109,0.823v3.459h-0.547V78.931z M183.899,76.888h-0.827
		c-0.793,0-1.384,0.113-1.774,0.342c-0.389,0.228-0.584,0.553-0.584,0.977c0,0.314,0.123,0.561,0.369,0.735s0.584,0.263,1.012,0.263
		c0.188,0,0.368-0.027,0.543-0.085c0.176-0.058,0.342-0.131,0.496-0.222c0.154-0.092,0.297-0.193,0.428-0.305
		c0.129-0.111,0.242-0.22,0.338-0.324V76.888z"/>
	<path fill="#3F3E29" stroke="#3F3E29" stroke-width="0.25" stroke-miterlimit="10" d="M193.194,79.751
		c-0.351,0-0.67-0.061-0.96-0.184s-0.538-0.304-0.745-0.541c-0.207-0.236-0.368-0.528-0.482-0.875
		c-0.113-0.346-0.17-0.742-0.17-1.189c0-0.438,0.055-0.829,0.167-1.176c0.112-0.346,0.271-0.638,0.479-0.875
		c0.208-0.236,0.456-0.418,0.745-0.543s0.611-0.188,0.967-0.188c0.256,0,0.494,0.033,0.715,0.102s0.417,0.169,0.588,0.301
		c0.171,0.133,0.314,0.297,0.431,0.492c0.116,0.196,0.197,0.42,0.243,0.67h-0.533c-0.023-0.164-0.074-0.31-0.154-0.438
		c-0.08-0.127-0.184-0.234-0.311-0.32c-0.128-0.087-0.275-0.152-0.441-0.195s-0.346-0.064-0.537-0.064
		c-0.269,0-0.515,0.047-0.738,0.14c-0.223,0.093-0.414,0.233-0.574,0.421c-0.159,0.187-0.282,0.42-0.369,0.7
		c-0.086,0.28-0.129,0.604-0.129,0.974c0,0.374,0.043,0.701,0.129,0.981c0.087,0.28,0.21,0.514,0.369,0.7
		c0.16,0.188,0.352,0.328,0.574,0.421c0.224,0.093,0.47,0.14,0.738,0.14c0.178,0,0.35-0.021,0.514-0.064s0.311-0.107,0.44-0.191
		s0.238-0.189,0.325-0.314c0.086-0.125,0.141-0.272,0.164-0.441h0.533c-0.051,0.256-0.134,0.48-0.25,0.674s-0.26,0.356-0.431,0.488
		c-0.171,0.133-0.366,0.232-0.588,0.298S193.445,79.751,193.194,79.751z"/>
	<path fill="#3F3E29" stroke="#3F3E29" stroke-width="0.25" stroke-miterlimit="10" d="M203.392,79.751
		c-0.369,0-0.704-0.063-1.005-0.188s-0.56-0.308-0.775-0.547c-0.217-0.239-0.385-0.532-0.503-0.879
		c-0.118-0.346-0.178-0.74-0.178-1.182c0-0.429,0.058-0.814,0.171-1.159s0.275-0.636,0.485-0.875s0.458-0.423,0.745-0.55
		c0.287-0.128,0.605-0.191,0.957-0.191c0.359,0,0.686,0.063,0.978,0.191c0.292,0.127,0.54,0.311,0.745,0.55s0.362,0.53,0.472,0.875
		s0.164,0.732,0.164,1.165v0.123h-4.17c0.027,0.36,0.093,0.673,0.198,0.938c0.105,0.264,0.242,0.484,0.41,0.659
		s0.363,0.307,0.584,0.394c0.222,0.086,0.462,0.129,0.722,0.129c0.183,0,0.364-0.021,0.547-0.064s0.348-0.108,0.495-0.195
		c0.148-0.086,0.273-0.193,0.373-0.32c0.1-0.128,0.16-0.273,0.178-0.438h0.54c-0.05,0.25-0.14,0.473-0.267,0.666
		s-0.285,0.357-0.472,0.492s-0.399,0.236-0.636,0.305S203.661,79.751,203.392,79.751z M205.094,76.538
		c-0.092-0.605-0.297-1.059-0.619-1.359c-0.32-0.301-0.717-0.451-1.186-0.451c-0.232,0-0.449,0.036-0.649,0.109
		c-0.2,0.072-0.38,0.184-0.536,0.334c-0.158,0.15-0.29,0.34-0.396,0.568c-0.107,0.228-0.184,0.494-0.229,0.799H205.094z"/>
</g>
<line fill="#3F3E29" stroke="#3F3E29" stroke-miterlimit="10" x1="22.778" y1="62.167" x2="206.778" y2="62.167"/>
<g>
	<path fill="#3F3E29" stroke="#3F3E29" stroke-width="0.5" stroke-miterlimit="10" d="M33.454,50.153
		c-0.399,0.047-0.797,0.082-1.195,0.105c-0.399,0.022-0.797,0.035-1.195,0.035c-1.219,0-2.197-0.171-2.936-0.51
		c-0.738-0.34-1.301-0.85-1.688-1.529s-0.639-1.529-0.756-2.549c-0.118-1.02-0.176-2.209-0.176-3.568V25.474h-3.48v-2.813h3.48
		v-7.137h2.813v7.137h4.465v2.813h-4.465v16.91c0,1.125,0.082,2.021,0.246,2.689c0.164,0.668,0.41,1.184,0.738,1.547
		c0.328,0.363,0.732,0.598,1.213,0.703c0.48,0.105,1.025,0.158,1.635,0.158c0.258,0,0.48,0,0.668,0c0.188,0,0.398-0.012,0.633-0.035
		V50.153z"/>
	<path fill="#3F3E29" stroke="#3F3E29" stroke-width="0.5" stroke-miterlimit="10" d="M42.27,49.907h-2.813V22.661h2.813V49.907z
		 M42.305,15.806h-2.813v-4.395h2.813V15.806z"/>
	<path fill="#3F3E29" stroke="#3F3E29" stroke-width="0.5" stroke-miterlimit="10" d="M60.543,50.61
		c-1.898,0-3.621-0.322-5.168-0.967s-2.877-1.582-3.99-2.813c-1.113-1.23-1.975-2.736-2.584-4.518
		c-0.61-1.781-0.914-3.809-0.914-6.082c0-2.203,0.293-4.189,0.879-5.959c0.585-1.77,1.418-3.27,2.496-4.5
		c1.078-1.23,2.355-2.174,3.832-2.83s3.117-0.984,4.922-0.984c1.851,0,3.527,0.328,5.027,0.984c1.5,0.656,2.777,1.6,3.832,2.83
		s1.863,2.73,2.426,4.5s0.844,3.768,0.844,5.994v0.633H50.7c0.141,1.852,0.48,3.457,1.02,4.816c0.539,1.359,1.242,2.49,2.109,3.393
		c0.867,0.902,1.869,1.576,3.006,2.021c1.137,0.445,2.373,0.668,3.709,0.668c0.937,0,1.875-0.111,2.813-0.334
		c0.937-0.223,1.787-0.557,2.549-1.002c0.761-0.445,1.4-0.996,1.916-1.652c0.515-0.656,0.82-1.406,0.914-2.25h2.777
		c-0.258,1.289-0.715,2.432-1.371,3.428c-0.656,0.996-1.465,1.84-2.426,2.531c-0.961,0.691-2.051,1.213-3.27,1.564
		C63.227,50.435,61.926,50.61,60.543,50.61z M69.297,34.087c-0.469-3.117-1.529-5.449-3.182-6.996s-3.686-2.32-6.1-2.32
		c-1.195,0-2.309,0.188-3.34,0.563c-1.032,0.375-1.951,0.949-2.76,1.723s-1.489,1.746-2.039,2.918
		c-0.551,1.172-0.944,2.543-1.178,4.113H69.297z"/>
	<path fill="#3F3E29" stroke="#3F3E29" stroke-width="0.5" stroke-miterlimit="10" d="M90.208,24.841
		c-0.258-0.047-0.54-0.07-0.844-0.07c-0.281,0-0.621,0-1.02,0c-0.797,0-1.57,0.164-2.32,0.492c-0.75,0.328-1.465,0.756-2.145,1.283
		c-0.68,0.527-1.313,1.125-1.898,1.793c-0.586,0.668-1.09,1.354-1.512,2.057v19.512h-2.813V22.661h2.813v3.762
		c0.796-0.938,1.587-1.699,2.373-2.285c0.785-0.586,1.547-1.043,2.285-1.371s1.447-0.545,2.127-0.65
		c0.68-0.105,1.301-0.158,1.863-0.158c0.188,0,0.363,0.006,0.527,0.018c0.164,0.012,0.352,0.029,0.563,0.053V24.841z"/>
	<path fill="#3F3E29" stroke="#3F3E29" stroke-width="0.5" stroke-miterlimit="10" d="M108.103,24.841
		c-0.258-0.047-0.54-0.07-0.844-0.07c-0.281,0-0.621,0-1.02,0c-0.797,0-1.57,0.164-2.32,0.492c-0.75,0.328-1.465,0.756-2.145,1.283
		c-0.68,0.527-1.313,1.125-1.898,1.793c-0.586,0.668-1.09,1.354-1.512,2.057v19.512h-2.813V22.661h2.813v3.762
		c0.796-0.938,1.587-1.699,2.373-2.285c0.785-0.586,1.547-1.043,2.285-1.371s1.447-0.545,2.127-0.65
		c0.68-0.105,1.301-0.158,1.863-0.158c0.188,0,0.363,0.006,0.527,0.018c0.164,0.012,0.352,0.029,0.563,0.053V24.841z"/>
	<path fill="#3F3E29" stroke="#3F3E29" stroke-width="0.5" stroke-miterlimit="10" d="M129.866,46.392
		c-0.961,0.844-1.898,1.541-2.813,2.092s-1.811,0.984-2.689,1.301s-1.752,0.532-2.619,0.65c-0.867,0.117-1.746,0.176-2.637,0.176
		c-1.195,0-2.309-0.182-3.34-0.545c-1.032-0.363-1.922-0.879-2.672-1.547c-0.75-0.668-1.342-1.477-1.775-2.426
		c-0.434-0.949-0.65-1.998-0.65-3.146c0-3.117,1.33-5.543,3.99-7.277c2.66-1.734,6.65-2.602,11.971-2.602h3.234
		c0-1.195-0.07-2.297-0.211-3.305s-0.469-1.881-0.984-2.619c-0.516-0.738-1.278-1.318-2.285-1.74
		c-1.008-0.422-2.379-0.633-4.113-0.633c-2.555,0-4.471,0.398-5.748,1.195c-1.278,0.797-2.034,2.004-2.268,3.621h-2.777
		c0.281-2.578,1.289-4.494,3.023-5.748c1.734-1.254,4.312-1.881,7.734-1.881c1.898,0,3.51,0.234,4.834,0.703
		c1.324,0.469,2.402,1.143,3.234,2.021c0.832,0.879,1.435,1.945,1.81,3.199s0.563,2.666,0.563,4.236v17.789h-2.812V46.392z
		 M129.866,35.88h-4.254c-4.078,0-7.119,0.586-9.123,1.758s-3.006,2.848-3.006,5.027c0,1.617,0.633,2.877,1.898,3.779
		s3,1.354,5.203,1.354c0.961,0,1.893-0.146,2.795-0.439c0.902-0.293,1.752-0.674,2.549-1.143c0.796-0.469,1.529-0.99,2.197-1.564
		s1.248-1.131,1.74-1.67V35.88z"/>
	<path fill="#3F3E29" stroke="#3F3E29" stroke-width="0.5" stroke-miterlimit="10" d="M155.6,50.61
		c-6.68,0-10.324-2.684-10.934-8.051h2.848c0.211,1.641,0.967,2.924,2.268,3.85s3.229,1.389,5.783,1.389
		c1.242,0,2.332-0.135,3.27-0.404s1.717-0.633,2.338-1.09s1.084-1.002,1.389-1.635s0.457-1.313,0.457-2.039
		s-0.123-1.348-0.369-1.863s-0.691-0.984-1.336-1.406s-1.523-0.826-2.637-1.213s-2.537-0.803-4.271-1.248
		c-1.477-0.375-2.789-0.762-3.938-1.16s-2.115-0.891-2.9-1.477s-1.377-1.295-1.775-2.127s-0.598-1.869-0.598-3.111
		c0-1.078,0.229-2.057,0.686-2.936s1.096-1.623,1.916-2.232s1.816-1.078,2.988-1.406s2.473-0.492,3.902-0.492
		c3.234,0,5.689,0.545,7.365,1.635s2.607,2.807,2.795,5.15h-2.848c-0.188-1.359-0.838-2.361-1.951-3.006s-2.771-0.967-4.975-0.967
		c-1.031,0-1.98,0.094-2.848,0.281s-1.611,0.463-2.232,0.826s-1.107,0.82-1.459,1.371s-0.527,1.178-0.527,1.881
		c0,0.398,0.07,0.809,0.211,1.23s0.498,0.855,1.072,1.301s1.436,0.896,2.584,1.354s2.719,0.932,4.711,1.424
		c1.57,0.398,2.936,0.814,4.096,1.248s2.121,0.949,2.883,1.547s1.33,1.295,1.705,2.092s0.563,1.734,0.563,2.813
		c0,1.195-0.24,2.314-0.721,3.357s-1.16,1.939-2.039,2.689s-1.951,1.342-3.217,1.775S157.17,50.61,155.6,50.61z"/>
	<path fill="#3F3E29" stroke="#3F3E29" stroke-width="0.5" stroke-miterlimit="10" d="M204.2,49.907h-2.813V11.411h2.813V49.907z"/>
</g>
<circle fill="#F1CB00" cx="182.609" cy="35.894" r="15.022"/>
</svg>
